<svg xmlns="http://www.w3.org/2000/svg" width="52.286" height="60" viewBox="0 0 52.286 60">
  <path id="Path_14194" data-name="Path 14194" d="M153.069,94.967H124.251v16.278h.28c2.479-3.194,5.534-3.573,8.881-3.336,4.943.293,9.763,3.295,10.087,12.853v18.875l0,.014a.718.718,0,0,1-.719.7h-5.292a.719.719,0,0,1-.722-.7V121.333c0-4.457-1.459-7.787-5.884-7.787a6.507,6.507,0,0,0-6.626,6.923v19.167l0,.014a.716.716,0,0,1-.719.7h-5.292a.716.716,0,0,1-.719-.7l0-.014V94.967h-9.16a3.827,3.827,0,0,0-3.99,3.651v52.488a4,4,0,0,0,3.99,3.86h44.716a3.654,3.654,0,0,0,3.58-3.86V98.618A3.478,3.478,0,0,0,153.069,94.967ZM146.7,147.308h-32.4v-3.191h32.4Z" transform="translate(-104.363 -94.967)" fill="#2c3454"/>
</svg>
